# xmcd CD database file
#
# Track frame offsets:
#	150
#	21469
#	36574
#	64390
#	87073
#	111790
#	124248
#	143066
#	155459
#	182311
#
# Disc length: 2725 seconds
#
# Revision: 0
# Processed by: cddbd v1.5.2PL0 Copyright (c) Steve Scherf et al.
# Submitted via: CDex 1.50
#
DISCID=870aa30a
DTITLE=The Double Vision - Blues ' N Roll
DYEAR=2012
DGENRE=Blues
TTITLE0=Suffer'n Bites
TTITLE1=Evil Water
TTITLE2=Cold Wind Blow
TTITLE3=Black River Mud
TTITLE4=My Window
TTITLE5=Behind The Bullet
TTITLE6=Where Are You Going Now?
TTITLE7=Gasoline And Water
TTITLE8=Some People Told You Lies
TTITLE9=Blues' N Roll
EXTD=YEAR: 2012
EXTT0=
EXTT1=
EXTT2=
EXTT3=
EXTT4=
EXTT5=
EXTT6=
EXTT7=
EXTT8=
EXTT9=
PLAYORDER=
